<svg xmlns="http://www.w3.org/2000/svg" width="560" height="480" viewBox="0 0 560 480">
  <g id="Group_1" data-name="Group 1" transform="translate(0 0)">
    <path id="Path_1" data-name="Path 1" d="M658.255,192.746h-2.643V121.621c0-22.735-18.76-41.165-41.9-41.165H460.329c-23.142,0-41.9,18.43-41.9,41.165v390.2c0,22.735,18.76,41.165,41.9,41.165H613.711c23.142,0,41.9-18.43,41.9-41.165V243.374h2.643Z" transform="translate(-258.423 -80.456)" fill="#3f3d56"/>
    <path id="Path_2" data-name="Path 2" d="M621.334,96.951H601.313a14.364,14.364,0,0,1-1.427,13.651,14.944,14.944,0,0,1-12.338,6.453H499.677A14.944,14.944,0,0,1,487.34,110.6a14.364,14.364,0,0,1-1.427-13.652h-18.7c-17.282,0-31.292,13.752-31.292,30.715V516.959c0,16.964,14.01,30.716,31.292,30.716H621.334c17.282,0,31.292-13.752,31.292-30.715h0V127.667c0-16.963-14.01-30.715-31.291-30.715Z" transform="translate(-264.356 -86.05)" fill="#fff"/>
    <path id="Path_3" data-name="Path 3" d="M985.316,380.086c-3.24,9.591-8.207,18.331-18.331,18.331s-17.76-8.223-18.331-18.331c-.729-12.916,7.973-18.384,18.331-18.331C979.221,361.818,989.163,368.7,985.316,380.086Z" transform="translate(-444.097 -179.327)" fill="#2f2e41"/>
    <rect id="Rectangle_1" data-name="Rectangle 1" width="36.179" height="45.827" transform="translate(504.558 199.932)" fill="#2f2e41"/>
    <path id="Path_4" data-name="Path 4" d="M1003.626,440.527h3.077a27.394,27.394,0,0,1,4.1,22.566c-3.419,12.993-.684,15.386-.684,15.386s4.451,14.07-.336,35.269,4.438,26.96,4.438,26.96l-8.548-17.1-4.787-45.133Z" transform="translate(-461.825 -207.742)" fill="#e6e6e6"/>
    <path id="Path_5" data-name="Path 5" d="M979.082,415.407s-2.735,10.941-1.368,10.941,6.154,5.813,6.154,5.813l3.077,11.283-2.393,8.206-8.206-1.709-10.257-11.283-3.077-3.077-2.735-9.916s3.419-4.1,1.026-7.522S979.082,415.407,979.082,415.407Z" transform="translate(-448.052 -198.162)" fill="#fbbebe"/>
    <path id="Path_6" data-name="Path 6" d="M851.82,448.552,844.3,436.243s-8.12-17.966-13.932-11.469,8.8,19.675,8.8,19.675l7.522,9.916Z" transform="translate(-401.142 -200.927)" fill="#fbbebe"/>
    <path id="Path_7" data-name="Path 7" d="M992.845,619.028l-5.471,40s.684,3.077-6.154,14.361-25.3,35.9-25.3,35.9l-5.471-10.258s6.5-32.482,17.78-39.32l-1.368-49.236Z" transform="translate(-444.719 -268.648)" fill="#fbbebe"/>
    <path id="Path_8" data-name="Path 8" d="M942.029,738.268l7.522,14.36s-6.154,8.641-3.761,10.35,5.471,17.1-1.026,15.386-11.625-8.548-11.625-9.574,3.761-6.589,1.71-10.008a16.6,16.6,0,0,0-3.419-4.445l-4.094,5.443-1.71-1.026L933.14,747.5s1.026-2.735,5.129-4.445Z" transform="translate(-436.302 -311.983)" fill="#2f2e41"/>
    <path id="Path_9" data-name="Path 9" d="M961.5,613.352s2.656,37.816-3.157,47.731V710.32l-7.864,1.026s-15.881-26.067-10.069-51.71-6-49.155-6-49.155Z" transform="translate(-439.28 -268.648)" fill="#fbbebe"/>
    <circle id="Ellipse_1" data-name="Ellipse 1" cx="14.36" cy="14.36" r="14.36" transform="translate(505.898 197.342)" fill="#fbbebe"/>
    <path id="Path_10" data-name="Path 10" d="M945.633,451.444l-14.36-18.122-8.206-5.471-3.419,4.445-9.574,2.735s-6.155,1.368-12.651,8.89S879.3,455.889,879.3,455.889s-20.857-6.838-20.857-8.206-9.916,9.232-7.522,13.335,13.8,16.638,30.555,14.245,23.126-4.671,23.126-4.671S907.68,486.32,916.57,489.4s37.953,5.129,37.953,5.129l6.155-20.515s6.838-8.89-2.393-21.883a85.743,85.743,0,0,0-1.17-12.1c-.386-1.881-.9-3.394-1.566-3.968-2.393-2.051-15.044-5.471-15.044-5.471s2.052,6.838,3.077,7.18S947,449.735,945.633,451.444Z" transform="translate(-410.843 -202.865)" fill="#e6e6e6"/>
    <path id="Path_11" data-name="Path 11" d="M924.02,623.921c17.219-1.2,27.244,1.624,31.716,3.775.831.376,3.933,1.166,3.933,1.3,0,1.026,22.5,3.6,31.048,1.552s-7.907-85.788-11.668-89.549-1.734-17.527-1.734-17.527-34.51-4.7-37.587-5.382a1.933,1.933,0,0,0-2.414.872,5.913,5.913,0,0,1-2.339,2.363c-7.259,4.182-13.085,33.094-17.472,49.078C912.718,587.836,924.02,623.921,924.02,623.921Z" transform="translate(-433.147 -235.348)" fill="#2f2e41"/>
    <path id="Path_12" data-name="Path 12" d="M966.678,756.893s4.022,14.691,6.5,26.328c0,0,1.71,4.039,7.864,7.116s-1.044,8.188-6.857,7.846-11.283.342-11.967-1.368-2.717-9.149-2.717-9.149l-1.122,10.291-3.419.342,1.123-13.368s-2.735-5.129,1.026-13.677l-.949-13.121S965.653,760.312,966.678,756.893Z" transform="translate(-446.248 -318.299)" fill="#2f2e41"/>
    <path id="Path_13" data-name="Path 13" d="M972.827,612.894a11.333,11.333,0,0,1,2.332,1.416c.181-3.231,1.227-22.772-.027-22.457Z" transform="translate(-452.309 -260.008)" opacity="0.1"/>
    <path id="Path_14" data-name="Path 14" d="M954.146,375.751s-.159-.885-6.379,1.447-9.948,19.545-6.838,29.652c1.253,4.073.234,7.01-1.43,9.065-6.245,7.711-3.786,19.293,5.309,23.258q.385.168.786.332l3.887,2.332a17.779,17.779,0,0,1-2.476-14.862,42.763,42.763,0,0,0,.772-21.893c-.285-1.221-.608-2.481-.975-3.766-3.11-10.885-1.6-9.628,9.287-20.513a69.19,69.19,0,0,0,11.662,7c5.442,2.332,10.107,4.665,6.22,12.44s-13.217,14.772-7,24.88,7,6.22,6.22,10.107h0l-.778,3.887,4.665-4.665-3.11,6.22s10.107,0,13.217-7.775l1.555,1.555s6.22-10.885-5.442-20.992c0,0-3.887-2.332,1.555-10.107s1.263-24.491-5.735-27.6S954.146,375.751,954.146,375.751Z" transform="translate(-439.832 -184.026)" fill="#2f2e41"/>
    <rect id="Rectangle_2" data-name="Rectangle 2" width="14.798" height="11.51" transform="translate(41.825 225.909) rotate(-87.779)" fill="#6c63ff"/>
    <path id="Path_15" data-name="Path 15" d="M309.894,482.175s15.927-7.61,15.672-1.038-16.055,10.9-16.055,10.9Z" transform="translate(-215.613 -220.108)" fill="#ffb9b9"/>
    <path id="Path_16" data-name="Path 16" d="M262.958,563.709s7.514,18.392,10.291,31.664,7,31.536,1.566,44.489-20.9,51.022-21.061,55.13,1.324,8.279-1.962,8.151-21.168-5.757-21.894-8.254,6.1-8.814,6.1-8.814l16.858-52.825-17.589-34.415-12.687,51.341L220.1,714.255s-12.2-3.764-13.966-.542c0,0-5.464-7.617-6.158-10.935s2.58-66.543,2.58-66.543-11.194-72.013-2.158-71.663S244.827,543.26,262.958,563.709Z" transform="translate(-177.415 -249.805)" fill="#2f2e41"/>
    <path id="Path_17" data-name="Path 17" d="M267.1,771.325s8.336,18.424,9.125,19.277,6.222,9.292,2.114,9.132-13.806-4.649-20.945-11.508-16.551-18.742-15.7-19.532,6.7-3.031,6.7-3.031Z" transform="translate(-192.599 -321.273)" fill="#2f2e41"/>
    <path id="Path_18" data-name="Path 18" d="M221.706,788.941s.5,8.247,2.019,11.6,1.324,8.279-2.783,8.12-14.724-.147-14.724-.147-.63-4.961.223-5.751,4.49-11.769,2.942-14.3S221.706,788.941,221.706,788.941Z" transform="translate(-180.509 -328.661)" fill="#2f2e41"/>
    <path id="Path_19" data-name="Path 19" d="M213.952,384.75s-8.757,13.647-12.17,16.806,6.19,10.113,6.19,10.113l17.188,2.312s-.216-15.641.669-17.252S213.952,384.75,213.952,384.75Z" transform="translate(-178.832 -187.349)" fill="#ffb9b9"/>
    <path id="Path_20" data-name="Path 20" d="M226.007,409.841s-3.541,6.445-6.827,6.317-20.283-7.369-21.009-9.865-5.63,17.882-5.63,17.882l41.59,73.192,10.145-7.011-4.916-42.974-4.037-23.194Z" transform="translate(-175.947 -195.461)" fill="#fff"/>
    <path id="Path_21" data-name="Path 21" d="M189.97,472.808a23.015,23.015,0,0,1,2.551,10.795c-.006.164-.013.329-.027.493-.394,7.6-3.195,16.4-4.2,22.792-.729,4.587-.522,7.936,2.163,8.723,6.508,1.9-.949,3.254,24.231,11.635s29.574,1.147,29.638-.5-3.566-14.125-2.713-14.915,11.94,10.336,15.29,8.82.382-9.858.382-9.858-7.546-17.57-7.387-21.678-11.431-23.48-11.431-23.48l-7.883-51.316s-3.031-6.7-7.107-7.68A10.1,10.1,0,0,0,216.023,408l6.82,15.074,7.2,26.607-1.2,9.826s-8.368-17.6-13.863-24.4-17.213-22.882-17.213-22.882-2.736-9.23-.67-11.989-8.614-3.181-13.168,8.161c-2.413,6.011-6.332,14.975-8.786,23.322-2.187,7.394-3.22,14.306-1.054,18.257C177.392,456.013,185.724,463.946,189.97,472.808Z" transform="translate(-169.281 -193.338)" fill="#3f3d56"/>
    <path id="Path_22" data-name="Path 22" d="M174.08,465.924c3.312,6.036,11.643,13.969,15.891,22.83,1.109-4,2.463-8.132,2.463-8.132s5.191-27.772-10.163-34.95a10.276,10.276,0,0,0-7.137,1.994C172.947,455.061,171.913,461.973,174.08,465.924Z" transform="translate(-169.281 -208.871)" opacity="0.1"/>
    <path id="Path_23" data-name="Path 23" d="M266.268,473.692l13.017,3.8,18.073.7,1.859,15.7-29.7,2.139S262.1,475.176,266.268,473.692Z" transform="translate(-200.517 -218.521)" fill="#3f3d56"/>
    <path id="Path_24" data-name="Path 24" d="M231.745,553.589s17.414,2.889,13.439,8.129-19.4-.269-19.4-.269Z" transform="translate(-187.22 -246.431)" fill="#ffb9b9"/>
    <path id="Path_25" data-name="Path 25" d="M200.4,527.964c-.394,7.6-3.195,16.4-4.2,22.792,5.547,5.25,10.823,9.881,12.811,9.958,4.108.159,10.712-.407,13.144.51s3.859-14.66,3.859-14.66-1.452-4.993-7.928-7.712A90.2,90.2,0,0,1,200.4,527.964Z" transform="translate(-177.189 -237.705)" opacity="0.1"/>
    <path id="Path_26" data-name="Path 26" d="M180.613,438.211s-13.9-2.185-13.151,20.882-1.465,37.79,4.126,42.12,23.753,23.958,27.861,24.117,10.712-.407,13.144.51,3.859-14.66,3.859-14.66-1.452-4.993-7.928-7.712-21.735-12.361-21.607-15.647,3.859-14.66,3.859-14.66S195.967,445.388,180.613,438.211Z" transform="translate(-167.432 -206.744)" fill="#3f3d56"/>
    <circle id="Ellipse_2" data-name="Ellipse 2" cx="18.087" cy="18.087" r="18.087" transform="translate(29.292 181.677)" fill="#ffb9b9"/>
    <path id="Path_27" data-name="Path 27" d="M240.7,346.86a3.493,3.493,0,0,0,1.521.763,1.085,1.085,0,0,0,1.258-.871,4.509,4.509,0,0,0,1.726,2.213c.845.44,2.151.071,2.273-.874a3.987,3.987,0,0,0,.918,1.937,1.375,1.375,0,0,0,1.932.065,49.664,49.664,0,0,0-.258,6.154c-.116,2.052-.663,4.228-2.214,5.578-2.261,1.968-5.662,1.482-8.636,1.11a2.621,2.621,0,0,0-1.353.074c-1.114.475-1.063,2.025-1.078,3.235a8.99,8.99,0,0,1-7.872,8.537,4.506,4.506,0,0,1-3.349-.817c-.845-.716-1.276-1.883-2.244-2.42-1.574-.875-3.483.4-4.634,1.786s-2.285,3.089-4.068,3.343c-2.358.335-4.154-2.068-5.035-4.281a24.954,24.954,0,0,1,.5-19.39C215.005,342.268,231.825,340.57,240.7,346.86Z" transform="translate(-181.143 -172.785)" fill="#2f2e41"/>
    <path id="Path_28" data-name="Path 28" d="M336.359,465.188c5.924-6.672,15.851-6.173,23.517-3.182,9.486,3.7,16.35,11.935,24.01,18.291a52.193,52.193,0,0,0,13.126,8.241A46.5,46.5,0,0,0,411.933,492a45.044,45.044,0,0,0,28.213-7.6,46.765,46.765,0,0,0,17.208-21.592c.415-1.07.783-2.156,1.112-3.254a.992.992,0,0,0-1.912-.527A44.3,44.3,0,0,1,440.94,481.4a43.2,43.2,0,0,1-27.523,8.692,44.868,44.868,0,0,1-14.879-3.062,48.618,48.618,0,0,1-13.144-8.049c-7.691-6.363-14.528-14.455-23.891-18.438-7.593-3.23-17.386-4.214-24.294,1.135a16.563,16.563,0,0,0-2.252,2.106c-.845.951.553,2.358,1.4,1.4Z" transform="translate(-227.055 -213.093)" fill="#2f2e41"/>
    <path id="Path_29" data-name="Path 29" d="M769.94,378.6c-1.243-8.229-8.478-13.626-15.962-16.02-9.93-3.177-20.24-.77-30.24.762a61.276,61.276,0,0,1-16.278.743,43.625,43.625,0,0,1-37.786-52.057c.247-1.22.549-2.426.9-3.621a.992.992,0,0,0-1.912-.527,46.335,46.335,0,0,0,1.21,29.184,45.093,45.093,0,0,0,18.045,22.076,46.572,46.572,0,0,0,28.061,7.086c5.74-.378,11.388-1.531,17.068-2.374,5.046-.748,10.286-1.335,15.364-.548,7.569,1.173,16.2,5.186,18.911,12.924a15.953,15.953,0,0,1,.708,2.9c.19,1.257,2.1.723,1.912-.527Z" transform="translate(-345.077 -160.39)" fill="#2f2e41"/>
    <path id="Path_30" data-name="Path 30" d="M580.768,606.808a21.808,21.808,0,0,0-30.841,30.841l30.841,30.841,30.841-30.841a21.808,21.808,0,1,0-30.841-30.841Z" transform="translate(-300.851 -263.694)" fill="#6df9b3"/>
    <rect id="Rectangle_3" data-name="Rectangle 3" width="190" height="37.513" transform="translate(253.389 98.223)" fill="#e6e6e6"/>
    <path id="Path_31" data-name="Path 31" d="M569.15,267.459h181.9V238.048H569.15Z" transform="translate(-311.666 -135.816)" fill="#fff"/>
    <circle id="Ellipse_3" data-name="Ellipse 3" cx="11.205" cy="11.205" r="11.205" transform="translate(264.426 105.458)" fill="#6df9b3"/>
    <rect id="Rectangle_4" data-name="Rectangle 4" width="110.589" height="2.436" transform="translate(300.352 112.241)" fill="#e6e6e6"/>
    <rect id="Rectangle_5" data-name="Rectangle 5" width="110.589" height="2.436" transform="translate(300.352 118.464)" fill="#e6e6e6"/>
    <rect id="Rectangle_6" data-name="Rectangle 6" width="190" height="37.513" transform="translate(136.811 194.2)" fill="#e6e6e6"/>
    <path id="Path_32" data-name="Path 32" d="M387.15,415.459h181.9V386.048H387.15Z" transform="translate(-246.32 -187.806)" fill="#fff"/>
    <circle id="Ellipse_4" data-name="Ellipse 4" cx="11.205" cy="11.205" r="11.205" transform="translate(146.719 201.496)" fill="#6df9b3"/>
    <rect id="Rectangle_7" data-name="Rectangle 7" width="110.589" height="2.436" transform="translate(183.136 208.351)" fill="#e6e6e6"/>
    <rect id="Rectangle_8" data-name="Rectangle 8" width="110.589" height="2.436" transform="translate(183.136 214.574)" fill="#e6e6e6"/>
  </g>
</svg>
